<svg xmlns="http://www.w3.org/2000/svg" viewBox="0 0 100 100"><title>FruitUI</title><rect x="3" y="3" width="46" height="46" rx="12" fill="#ec7a1c"/><g transform="translate(3 3)"><circle cx="23" cy="23" r="14" fill="none" stroke="#ffffff" stroke-width="3"/><line x1="23" y1="23" x2="32.50" y2="23.00" stroke="#ffffff" stroke-width="2.4" stroke-linecap="round"/><line x1="23" y1="23" x2="27.75" y2="31.23" stroke="#ffffff" stroke-width="2.4" stroke-linecap="round"/><line x1="23" y1="23" x2="18.25" y2="31.23" stroke="#ffffff" stroke-width="2.4" stroke-linecap="round"/><line x1="23" y1="23" x2="13.50" y2="23.00" stroke="#ffffff" stroke-width="2.4" stroke-linecap="round"/><line x1="23" y1="23" x2="18.25" y2="14.77" stroke="#ffffff" stroke-width="2.4" stroke-linecap="round"/><line x1="23" y1="23" x2="27.75" y2="14.77" stroke="#ffffff" stroke-width="2.4" stroke-linecap="round"/></g><rect x="51" y="3" width="46" height="46" rx="12" fill="#d93a4a"/><g transform="translate(51 3)"><path d="M15 31 Q18 18 27 11 M31 31 Q29 20 27 11" fill="none" stroke="#ffffff" stroke-width="2.4" stroke-linecap="round"/><circle cx="15" cy="32" r="6.5" fill="#ffffff"/><circle cx="31" cy="32" r="6.5" fill="#ffffff"/></g><rect x="3" y="51" width="46" height="46" rx="12" fill="#2e8a4a"/><g transform="translate(3 51)"><path d="M23 7 L9.2 29.05 A26 26 0 0 0 36.8 29.05 Z" fill="#ffffff"/><path d="M8 32.98 A30 30 0 0 0 38 32.98" fill="none" stroke="#ffffff" stroke-width="2.8" stroke-linecap="round"/><ellipse cx="23" cy="16" rx="1.3" ry="1.9" fill="#2e8a4a"/><ellipse cx="19.5" cy="21.5" rx="1.3" ry="1.9" fill="#2e8a4a"/><ellipse cx="26.5" cy="21.5" rx="1.3" ry="1.9" fill="#2e8a4a"/><ellipse cx="16" cy="27" rx="1.3" ry="1.9" fill="#2e8a4a"/><ellipse cx="23" cy="27" rx="1.3" ry="1.9" fill="#2e8a4a"/><ellipse cx="30" cy="27" rx="1.3" ry="1.9" fill="#2e8a4a"/></g><rect x="51" y="51" width="46" height="46" rx="12" fill="#8b45b8"/><g transform="translate(51 51)"><circle cx="17" cy="17" r="4.6" fill="#ffffff"/><circle cx="26" cy="17" r="4.6" fill="#ffffff"/><circle cx="35" cy="17" r="4.6" fill="#ffffff"/><circle cx="21.5" cy="25" r="4.6" fill="#ffffff"/><circle cx="30.5" cy="25" r="4.6" fill="#ffffff"/><circle cx="26" cy="33" r="4.6" fill="#ffffff"/><path d="M26 12 Q27 8 31 7" fill="none" stroke="#ffffff" stroke-width="2.2" stroke-linecap="round"/></g></svg>
